<?xml version="1.0" encoding="utf-8"?>
<!-- Generator: Adobe Illustrator 22.0.0, SVG Export Plug-In . SVG Version: 6.00 Build 0)  -->
<svg version="1.1" id="Layer_1" xmlns="http://www.w3.org/2000/svg" xmlns:xlink="http://www.w3.org/1999/xlink" x="0px" y="0px"
	 width="142px" height="64px" viewBox="0 0 142 64" style="enable-background:new 0 0 142 64;" xml:space="preserve">
<style type="text/css">
	.st0{fill:#FFFFFF;}
</style>
<g>
	<path class="st0" d="M79.6,29.1c-0.5-0.8-1.1-1.6-1.8-2.3c-0.7-0.7-1.5-1.3-2.3-1.8c-0.8-0.5-1.8-0.9-2.7-1.2c-2-0.5-4.2-0.5-6.1,0
		c-1,0.3-1.9,0.7-2.7,1.2c-0.8,0.5-1.6,1.1-2.3,1.8c-0.7,0.7-1.3,1.5-1.8,2.3c-0.5,0.8-0.9,1.8-1.2,2.7c-0.3,1-0.4,2-0.4,3
		c0,0.2,0,0.4,0,0.5l0,0.1l-0.1,0.1c-1.6,2.9-3.1,4.1-5,5.1l-0.1,0.1c-0.6,0.2-1.4,0.5-2.8,0.5h0c-0.9,0-1.7-0.2-2.4-0.5
		c-0.8-0.3-1.4-0.8-2-1.4c-0.5-0.6-1-1.3-1.3-2c-0.3-0.8-0.5-1.6-0.5-2.5c0-0.9,0.2-1.7,0.5-2.5c0.3-0.8,0.7-1.5,1.3-2.1
		c0.5-0.6,1.2-1.1,2-1.4c0.8-0.3,1.6-0.5,2.5-0.5c0.7,0,1.4,0.1,2,0.3c0.6,0.2,1.2,0.5,1.8,0.9c0.1,0.1,0.2,0.1,0.2,0.1
		c0,0,0.1,0,0.1-0.1l2.6-3.7c0-0.1,0.1-0.2,0-0.2c-0.1-0.1-0.1-0.2-0.3-0.3c-1-0.6-2-1.1-3-1.5c-1.1-0.3-2.2-0.5-3.4-0.5
		c-1,0-2.1,0.1-3,0.4c-1,0.3-1.9,0.7-2.7,1.2c-0.8,0.5-1.6,1.1-2.3,1.8c-0.7,0.7-1.3,1.5-1.8,2.3c-0.5,0.8-0.9,1.8-1.2,2.7
		c-0.3,1-0.4,2-0.4,3c0,1.1,0.1,2.1,0.4,3c0.3,1,0.7,1.9,1.1,2.7c0.5,0.8,1.1,1.6,1.8,2.3c0.7,0.7,1.5,1.3,2.3,1.8
		c0.8,0.5,1.8,0.9,2.7,1.2c1,0.3,2,0.4,3,0.4c1.2,0,2.3-0.2,3.4-0.5c0.6-0.2,1.1-0.4,1.7-0.7c2.1-1,3.2-2.3,4.2-3.7L60,41l0.3,0.4
		c0.4,0.6,0.8,1.1,1.3,1.6c0.7,0.7,1.5,1.3,2.3,1.8c0.8,0.5,1.8,0.9,2.7,1.2c1.9,0.5,4.1,0.5,6.1,0c1-0.3,1.9-0.6,2.7-1.1
		c0.8-0.5,1.6-1.1,2.3-1.8c0.7-0.7,1.3-1.5,1.8-2.3c0.5-0.8,0.9-1.8,1.1-2.7c0.3-1,0.4-2,0.4-3c0-1.1-0.1-2.1-0.4-3
		C80.5,30.8,80.1,29.9,79.6,29.1 M75.5,37.4c-0.3,0.8-0.7,1.5-1.3,2.1c-0.5,0.6-1.2,1-2,1.4c-0.8,0.3-1.6,0.5-2.5,0.5
		c-0.9,0-1.7-0.2-2.5-0.5c-0.7-0.3-1.4-0.8-2-1.4c-0.5-0.6-1-1.3-1.3-2.1c-0.3-0.8-0.5-1.6-0.5-2.5c0-0.9,0.2-1.7,0.5-2.5
		c0.3-0.8,0.7-1.5,1.3-2.1c0.5-0.6,1.2-1.1,2-1.4c0.7-0.3,1.6-0.5,2.5-0.5c0.9,0,1.7,0.2,2.5,0.5c0.8,0.3,1.4,0.8,2,1.4
		c0.5,0.6,1,1.3,1.3,2.1c0.3,0.8,0.5,1.6,0.5,2.5C75.9,35.7,75.8,36.6,75.5,37.4"/>
	<path class="st0" d="M98.9,34.2L98.6,34l0.2-0.3c0.4-0.5,0.7-1,1-1.7c0.2-0.6,0.3-1.3,0.3-2c0-0.9-0.2-1.7-0.5-2.5
		c-0.3-0.8-0.8-1.4-1.4-2c-0.6-0.6-1.2-1-2-1.3c-0.8-0.3-1.6-0.5-2.4-0.5H83.7c-0.2,0-0.2,0.1-0.2,0.1c0,0-0.1,0.1-0.1,0.3v21.5
		c0,0.1,0,0.2,0.1,0.2c0.1,0,0.1,0.1,0.3,0.1h11.1c0.8,0,1.7-0.2,2.4-0.5c0.8-0.3,1.5-0.8,2-1.4c0.6-0.6,1-1.3,1.4-2.1
		c0.3-0.8,0.5-1.6,0.5-2.5c0-1-0.2-1.9-0.6-2.8C100.1,35.6,99.6,34.9,98.9,34.2 M88.6,27.6h3.7c0.4,0,0.7,0.1,1.1,0.2
		c0.3,0.1,0.6,0.3,0.9,0.6c0.2,0.2,0.4,0.5,0.6,0.8c0.1,0.3,0.2,0.6,0.2,1c0,0.4-0.1,0.7-0.2,1c-0.1,0.3-0.3,0.6-0.6,0.8
		c-0.2,0.2-0.5,0.4-0.9,0.5c-0.3,0.1-0.7,0.2-1.1,0.2h-3.6V27.6z M95.6,40.2c-0.1,0.3-0.3,0.7-0.6,0.9c-0.2,0.3-0.5,0.5-0.9,0.7
		c-0.3,0.2-0.7,0.3-1.1,0.3h-4.4v-5.9H93c0.4,0,0.8,0.1,1.1,0.3c0.3,0.2,0.6,0.4,0.9,0.7c0.2,0.3,0.4,0.6,0.6,0.9
		c0.1,0.3,0.2,0.7,0.2,1.1C95.8,39.5,95.7,39.9,95.6,40.2"/>
	<path class="st0" d="M140.5,45.4c-0.1-0.2-0.2-0.4-0.3-0.5l-4.1-7.8l0.3-0.2c0.5-0.3,1-0.7,1.5-1.1c0.4-0.4,0.8-0.9,1.2-1.4
		c0.3-0.5,0.6-1.1,0.8-1.7c0.2-0.6,0.3-1.2,0.3-1.9c0-1-0.2-1.9-0.6-2.8c-0.4-0.9-0.9-1.6-1.5-2.3c-0.7-0.6-1.4-1.2-2.3-1.5
		c-0.9-0.4-1.8-0.6-2.8-0.6h-10c-0.1,0-0.2,0-0.2,0.1c0,0-0.1,0.1-0.1,0.3v17.3h-13.9v-4.7h8.1c0.2,0,0.2-0.1,0.2-0.1
		c0.1-0.1,0.1-0.2,0.1-0.2v-3.3c0,0,0-0.1,0-0.2c-0.1,0-0.2-0.1-0.3-0.1h-8.1v-4.5h10.4c0.2,0,0.2-0.1,0.3-0.1
		c0.1-0.1,0.1-0.2,0.1-0.3v-3.8c0-0.1,0-0.2-0.1-0.3c0,0-0.1-0.1-0.3-0.1h-15.3c-0.1,0-0.2,0-0.2,0.1c0,0-0.1,0.1-0.1,0.3v21.5
		c0,0.1,0,0.2,0.1,0.2c0.1,0,0.1,0.1,0.3,0.1h23.7c0.3,0,0.4-0.1,0.4-0.3V32.9v-5.1h2.5c0.3,0,0.6,0,0.8,0c0.3,0,0.5,0,0.8,0.1
		c0.4,0.1,0.8,0.2,1.1,0.4c0.3,0.2,0.6,0.4,0.8,0.7c0.2,0.3,0.4,0.6,0.5,0.9c0.1,0.3,0.2,0.7,0.2,1c0,0.4-0.1,0.7-0.2,1.1
		c-0.1,0.4-0.3,0.7-0.5,1c-0.2,0.3-0.5,0.5-0.8,0.7c-0.3,0.2-0.7,0.3-1.1,0.4c-0.2,0-0.3,0-0.5,0c-0.2,0-0.3,0-0.5,0H129
		c-0.1,0-0.1,0-0.2,0.1c0,0.1,0,0.2,0,0.3l2.3,4.6l3.5,6.5c0,0.1,0.1,0.2,0.1,0.2c0.1,0.1,0.2,0.1,0.3,0.1h5.3c0.1,0,0.2,0,0.2-0.1
		c0,0,0,0,0-0.1C140.6,45.7,140.6,45.6,140.5,45.4"/>
	<path class="st0" d="M29.4,45.5c-1.9-0.9-3.3-1.4-5.1-2.3c-6.3-3.2-7-8.4-7-8.4v16.8c0,2.3,1.2,4.4,3.1,5.6l11.9,6.3V50.1
		C32.3,48.1,31.2,46.3,29.4,45.5"/>
	<path class="st0" d="M17.3,14.7v20c0,0,0.7-6.3,8.3-10.1c2.1-1.1,3.8-1.7,6.1-2.7c2.1-1,3.5-3.1,3.5-5.4v-16L21.1,8
		C18.7,9.4,17.3,12,17.3,14.7"/>
	<path class="st0" d="M9,39.6c-1,0.5-1.7,0.7-2.7,1.2c-1,0.4-1.6,1.4-1.6,2.4v7.2L11,47c1-0.6,1.7-1.8,1.7-3v-9
		C12.7,35.1,12.4,37.9,9,39.6"/>
	<path class="st0" d="M10.4,17.3l-8.9-4.7v10.1c0,1.5,0.9,2.8,2.2,3.4c1.4,0.6,2.5,1,3.8,1.7c4.8,2.4,5.2,6.3,5.2,6.3V21.5
		C12.7,19.8,11.8,18.2,10.4,17.3"/>
</g>
</svg>
